<mxfile host="Electron" modified="2024-10-14T19:29:11.632Z" agent="Mozilla/5.0 (Windows NT 10.0; Win64; x64) AppleWebKit/537.36 (KHTML, like Gecko) draw.io/22.0.3 Chrome/114.0.5735.289 Electron/25.8.4 Safari/537.36" etag="GLOtqaz7TVvT4WJ54ShC" version="22.0.3" type="device">
  <diagram name="第1頁" id="zrS8h8VO2O7lW9n0PCQ2">
    <mxGraphModel dx="1863" dy="614" grid="1" gridSize="10" guides="1" tooltips="1" connect="1" arrows="1" fold="1" page="1" pageScale="1" pageWidth="827" pageHeight="1169" math="0" shadow="0">
      <root>
        <mxCell id="0" />
        <mxCell id="1" parent="0" />
        <mxCell id="yGvaIuRayk3CMt5AqlUQ-1" value="" style="ellipse;html=1;shape=startState;fillColor=#000000;strokeColor=#ff0000;" vertex="1" parent="1">
          <mxGeometry x="-350" y="1240" width="30" height="30" as="geometry" />
        </mxCell>
        <mxCell id="yGvaIuRayk3CMt5AqlUQ-2" value="" style="edgeStyle=orthogonalEdgeStyle;html=1;verticalAlign=bottom;endArrow=classic;endSize=8;strokeColor=#33001A;rounded=0;endFill=1;" edge="1" parent="1" source="yGvaIuRayk3CMt5AqlUQ-1">
          <mxGeometry relative="1" as="geometry">
            <mxPoint x="-240" y="1255" as="targetPoint" />
          </mxGeometry>
        </mxCell>
        <mxCell id="yGvaIuRayk3CMt5AqlUQ-3" value="登入" style="html=1;whiteSpace=wrap;" vertex="1" parent="1">
          <mxGeometry x="-240" y="1230" width="110" height="50" as="geometry" />
        </mxCell>
        <mxCell id="yGvaIuRayk3CMt5AqlUQ-4" value="" style="edgeStyle=orthogonalEdgeStyle;html=1;verticalAlign=bottom;endArrow=classic;endSize=8;strokeColor=#33001A;rounded=0;exitX=1;exitY=0.5;exitDx=0;exitDy=0;endFill=1;" edge="1" parent="1" source="yGvaIuRayk3CMt5AqlUQ-3">
          <mxGeometry relative="1" as="geometry">
            <mxPoint x="-40" y="1255" as="targetPoint" />
            <mxPoint x="-120" y="1255" as="sourcePoint" />
          </mxGeometry>
        </mxCell>
        <mxCell id="yGvaIuRayk3CMt5AqlUQ-5" style="edgeStyle=orthogonalEdgeStyle;rounded=0;orthogonalLoop=1;jettySize=auto;html=1;exitX=1;exitY=0.5;exitDx=0;exitDy=0;" edge="1" parent="1" source="yGvaIuRayk3CMt5AqlUQ-8">
          <mxGeometry relative="1" as="geometry">
            <mxPoint x="160" y="1254.571428571429" as="targetPoint" />
          </mxGeometry>
        </mxCell>
        <mxCell id="yGvaIuRayk3CMt5AqlUQ-6" style="edgeStyle=orthogonalEdgeStyle;rounded=0;orthogonalLoop=1;jettySize=auto;html=1;exitX=0.5;exitY=0;exitDx=0;exitDy=0;entryX=0;entryY=0.5;entryDx=0;entryDy=0;" edge="1" parent="1" source="yGvaIuRayk3CMt5AqlUQ-8" target="yGvaIuRayk3CMt5AqlUQ-18">
          <mxGeometry relative="1" as="geometry">
            <mxPoint x="130" y="1060" as="targetPoint" />
          </mxGeometry>
        </mxCell>
        <mxCell id="yGvaIuRayk3CMt5AqlUQ-7" value="點擊個人檔案" style="edgeLabel;html=1;align=center;verticalAlign=middle;resizable=0;points=[];" connectable="0" vertex="1" parent="yGvaIuRayk3CMt5AqlUQ-6">
          <mxGeometry x="0.4185" y="2" relative="1" as="geometry">
            <mxPoint y="-13" as="offset" />
          </mxGeometry>
        </mxCell>
        <mxCell id="yGvaIuRayk3CMt5AqlUQ-8" value="主頁面" style="html=1;whiteSpace=wrap;" vertex="1" parent="1">
          <mxGeometry x="-40" y="1230" width="110" height="50" as="geometry" />
        </mxCell>
        <mxCell id="yGvaIuRayk3CMt5AqlUQ-9" value="房屋查詢" style="html=1;whiteSpace=wrap;" vertex="1" parent="1">
          <mxGeometry x="160" y="1230" width="110" height="50" as="geometry" />
        </mxCell>
        <mxCell id="yGvaIuRayk3CMt5AqlUQ-10" style="edgeStyle=orthogonalEdgeStyle;rounded=0;orthogonalLoop=1;jettySize=auto;html=1;exitX=1;exitY=0.5;exitDx=0;exitDy=0;" edge="1" parent="1">
          <mxGeometry relative="1" as="geometry">
            <mxPoint x="360" y="1254.571428571429" as="targetPoint" />
            <mxPoint x="270" y="1255" as="sourcePoint" />
          </mxGeometry>
        </mxCell>
        <mxCell id="yGvaIuRayk3CMt5AqlUQ-11" value="選擇縣市及區域" style="edgeLabel;html=1;align=center;verticalAlign=middle;resizable=0;points=[];" connectable="0" vertex="1" parent="yGvaIuRayk3CMt5AqlUQ-10">
          <mxGeometry x="-0.2748" y="-1" relative="1" as="geometry">
            <mxPoint x="8" y="-16" as="offset" />
          </mxGeometry>
        </mxCell>
        <mxCell id="yGvaIuRayk3CMt5AqlUQ-12" value="查詢結果頁面" style="html=1;whiteSpace=wrap;" vertex="1" parent="1">
          <mxGeometry x="360" y="1230" width="110" height="50" as="geometry" />
        </mxCell>
        <mxCell id="yGvaIuRayk3CMt5AqlUQ-13" value="" style="ellipse;html=1;shape=startState;fillColor=#000000;strokeColor=#ff0000;" vertex="1" parent="1">
          <mxGeometry x="550" y="1240" width="30" height="30" as="geometry" />
        </mxCell>
        <mxCell id="yGvaIuRayk3CMt5AqlUQ-14" value="" style="edgeStyle=orthogonalEdgeStyle;html=1;verticalAlign=bottom;endArrow=open;endSize=8;strokeColor=#33001A;rounded=0;exitX=1;exitY=0.5;exitDx=0;exitDy=0;entryX=0;entryY=0.5;entryDx=0;entryDy=0;" edge="1" parent="1" source="yGvaIuRayk3CMt5AqlUQ-12" target="yGvaIuRayk3CMt5AqlUQ-13">
          <mxGeometry relative="1" as="geometry">
            <mxPoint x="565" y="1269" as="targetPoint" />
            <mxPoint x="800" y="1279" as="sourcePoint" />
          </mxGeometry>
        </mxCell>
        <mxCell id="yGvaIuRayk3CMt5AqlUQ-15" value="完成" style="edgeLabel;html=1;align=center;verticalAlign=middle;resizable=0;points=[];" connectable="0" vertex="1" parent="yGvaIuRayk3CMt5AqlUQ-14">
          <mxGeometry x="-0.0556" y="2" relative="1" as="geometry">
            <mxPoint x="3" y="-13" as="offset" />
          </mxGeometry>
        </mxCell>
        <mxCell id="yGvaIuRayk3CMt5AqlUQ-16" style="edgeStyle=orthogonalEdgeStyle;rounded=0;orthogonalLoop=1;jettySize=auto;html=1;exitX=1;exitY=0.5;exitDx=0;exitDy=0;" edge="1" parent="1" source="yGvaIuRayk3CMt5AqlUQ-18">
          <mxGeometry relative="1" as="geometry">
            <mxPoint x="360" y="1075.3333333333335" as="targetPoint" />
          </mxGeometry>
        </mxCell>
        <mxCell id="yGvaIuRayk3CMt5AqlUQ-17" value="修改個人資料" style="edgeLabel;html=1;align=center;verticalAlign=middle;resizable=0;points=[];" connectable="0" vertex="1" parent="yGvaIuRayk3CMt5AqlUQ-16">
          <mxGeometry x="0.0336" relative="1" as="geometry">
            <mxPoint y="-16" as="offset" />
          </mxGeometry>
        </mxCell>
        <mxCell id="yGvaIuRayk3CMt5AqlUQ-18" value="個人檔案管理" style="html=1;whiteSpace=wrap;" vertex="1" parent="1">
          <mxGeometry x="160" y="1050" width="110" height="50" as="geometry" />
        </mxCell>
        <mxCell id="yGvaIuRayk3CMt5AqlUQ-19" value="修改個資頁面" style="html=1;whiteSpace=wrap;" vertex="1" parent="1">
          <mxGeometry x="360" y="1050" width="110" height="50" as="geometry" />
        </mxCell>
        <mxCell id="yGvaIuRayk3CMt5AqlUQ-20" style="edgeStyle=orthogonalEdgeStyle;rounded=0;orthogonalLoop=1;jettySize=auto;html=1;exitX=1;exitY=0.5;exitDx=0;exitDy=0;" edge="1" parent="1">
          <mxGeometry relative="1" as="geometry">
            <mxPoint x="560" y="1075.3333333333335" as="targetPoint" />
            <mxPoint x="470" y="1075" as="sourcePoint" />
          </mxGeometry>
        </mxCell>
        <mxCell id="yGvaIuRayk3CMt5AqlUQ-21" value="修改個人資料" style="edgeLabel;html=1;align=center;verticalAlign=middle;resizable=0;points=[];" connectable="0" vertex="1" parent="yGvaIuRayk3CMt5AqlUQ-20">
          <mxGeometry x="0.0336" relative="1" as="geometry">
            <mxPoint y="-16" as="offset" />
          </mxGeometry>
        </mxCell>
        <mxCell id="yGvaIuRayk3CMt5AqlUQ-22" value="個人資料已修改" style="html=1;whiteSpace=wrap;" vertex="1" parent="1">
          <mxGeometry x="560" y="1050" width="110" height="50" as="geometry" />
        </mxCell>
        <mxCell id="yGvaIuRayk3CMt5AqlUQ-23" value="" style="ellipse;html=1;shape=startState;fillColor=#000000;strokeColor=#ff0000;" vertex="1" parent="1">
          <mxGeometry x="750" y="1060" width="30" height="30" as="geometry" />
        </mxCell>
        <mxCell id="yGvaIuRayk3CMt5AqlUQ-24" value="" style="edgeStyle=orthogonalEdgeStyle;html=1;verticalAlign=bottom;endArrow=open;endSize=8;strokeColor=#33001A;rounded=0;exitX=1;exitY=0.5;exitDx=0;exitDy=0;entryX=0;entryY=0.5;entryDx=0;entryDy=0;" edge="1" parent="1" target="yGvaIuRayk3CMt5AqlUQ-23">
          <mxGeometry relative="1" as="geometry">
            <mxPoint x="765" y="1089" as="targetPoint" />
            <mxPoint x="670" y="1075" as="sourcePoint" />
          </mxGeometry>
        </mxCell>
        <mxCell id="yGvaIuRayk3CMt5AqlUQ-25" value="完成" style="edgeLabel;html=1;align=center;verticalAlign=middle;resizable=0;points=[];" connectable="0" vertex="1" parent="yGvaIuRayk3CMt5AqlUQ-24">
          <mxGeometry x="-0.0556" y="2" relative="1" as="geometry">
            <mxPoint x="3" y="-13" as="offset" />
          </mxGeometry>
        </mxCell>
        <mxCell id="yGvaIuRayk3CMt5AqlUQ-26" style="edgeStyle=orthogonalEdgeStyle;rounded=0;orthogonalLoop=1;jettySize=auto;html=1;exitX=0.5;exitY=1;exitDx=0;exitDy=0;entryX=0;entryY=0.5;entryDx=0;entryDy=0;" edge="1" parent="1" source="yGvaIuRayk3CMt5AqlUQ-8" target="yGvaIuRayk3CMt5AqlUQ-31">
          <mxGeometry relative="1" as="geometry">
            <mxPoint x="75" y="1330" as="targetPoint" />
            <mxPoint x="-40" y="1500" as="sourcePoint" />
          </mxGeometry>
        </mxCell>
        <mxCell id="yGvaIuRayk3CMt5AqlUQ-27" value="點擊PO文" style="edgeLabel;html=1;align=center;verticalAlign=middle;resizable=0;points=[];" connectable="0" vertex="1" parent="yGvaIuRayk3CMt5AqlUQ-26">
          <mxGeometry x="0.4185" y="2" relative="1" as="geometry">
            <mxPoint y="-13" as="offset" />
          </mxGeometry>
        </mxCell>
        <mxCell id="yGvaIuRayk3CMt5AqlUQ-28" style="edgeStyle=orthogonalEdgeStyle;rounded=0;orthogonalLoop=1;jettySize=auto;html=1;exitX=1;exitY=0.5;exitDx=0;exitDy=0;" edge="1" parent="1" source="yGvaIuRayk3CMt5AqlUQ-31">
          <mxGeometry relative="1" as="geometry">
            <mxPoint x="360" y="1425.3333333333335" as="targetPoint" />
          </mxGeometry>
        </mxCell>
        <mxCell id="yGvaIuRayk3CMt5AqlUQ-29" value="點擊新增PO文" style="edgeLabel;html=1;align=center;verticalAlign=middle;resizable=0;points=[];" connectable="0" vertex="1" parent="yGvaIuRayk3CMt5AqlUQ-28">
          <mxGeometry x="0.0336" relative="1" as="geometry">
            <mxPoint y="-16" as="offset" />
          </mxGeometry>
        </mxCell>
        <mxCell id="yGvaIuRayk3CMt5AqlUQ-30" style="edgeStyle=orthogonalEdgeStyle;rounded=0;orthogonalLoop=1;jettySize=auto;html=1;exitX=0.5;exitY=1;exitDx=0;exitDy=0;entryX=0;entryY=0.5;entryDx=0;entryDy=0;" edge="1" parent="1" source="yGvaIuRayk3CMt5AqlUQ-31" target="yGvaIuRayk3CMt5AqlUQ-41">
          <mxGeometry relative="1" as="geometry" />
        </mxCell>
        <mxCell id="yGvaIuRayk3CMt5AqlUQ-31" value="PO文管理" style="html=1;whiteSpace=wrap;" vertex="1" parent="1">
          <mxGeometry x="160" y="1400" width="110" height="50" as="geometry" />
        </mxCell>
        <mxCell id="yGvaIuRayk3CMt5AqlUQ-32" value="新增PO頁面" style="html=1;whiteSpace=wrap;" vertex="1" parent="1">
          <mxGeometry x="360" y="1400" width="110" height="50" as="geometry" />
        </mxCell>
        <mxCell id="yGvaIuRayk3CMt5AqlUQ-33" style="edgeStyle=orthogonalEdgeStyle;rounded=0;orthogonalLoop=1;jettySize=auto;html=1;exitX=1;exitY=0.5;exitDx=0;exitDy=0;" edge="1" parent="1">
          <mxGeometry relative="1" as="geometry">
            <mxPoint x="560" y="1425.3333333333335" as="targetPoint" />
            <mxPoint x="470" y="1425" as="sourcePoint" />
          </mxGeometry>
        </mxCell>
        <mxCell id="yGvaIuRayk3CMt5AqlUQ-34" value="待管理員審核" style="edgeLabel;html=1;align=center;verticalAlign=middle;resizable=0;points=[];" connectable="0" vertex="1" parent="yGvaIuRayk3CMt5AqlUQ-33">
          <mxGeometry x="0.0336" relative="1" as="geometry">
            <mxPoint y="-16" as="offset" />
          </mxGeometry>
        </mxCell>
        <mxCell id="yGvaIuRayk3CMt5AqlUQ-35" value="新增PO文成功" style="html=1;whiteSpace=wrap;" vertex="1" parent="1">
          <mxGeometry x="560" y="1400" width="110" height="50" as="geometry" />
        </mxCell>
        <mxCell id="yGvaIuRayk3CMt5AqlUQ-36" value="" style="ellipse;html=1;shape=startState;fillColor=#000000;strokeColor=#ff0000;" vertex="1" parent="1">
          <mxGeometry x="750" y="1410" width="30" height="30" as="geometry" />
        </mxCell>
        <mxCell id="yGvaIuRayk3CMt5AqlUQ-37" value="" style="edgeStyle=orthogonalEdgeStyle;html=1;verticalAlign=bottom;endArrow=open;endSize=8;strokeColor=#33001A;rounded=0;exitX=1;exitY=0.5;exitDx=0;exitDy=0;entryX=0;entryY=0.5;entryDx=0;entryDy=0;" edge="1" parent="1" target="yGvaIuRayk3CMt5AqlUQ-36">
          <mxGeometry relative="1" as="geometry">
            <mxPoint x="765" y="1439" as="targetPoint" />
            <mxPoint x="670" y="1425" as="sourcePoint" />
          </mxGeometry>
        </mxCell>
        <mxCell id="yGvaIuRayk3CMt5AqlUQ-38" value="完成" style="edgeLabel;html=1;align=center;verticalAlign=middle;resizable=0;points=[];" connectable="0" vertex="1" parent="yGvaIuRayk3CMt5AqlUQ-37">
          <mxGeometry x="-0.0556" y="2" relative="1" as="geometry">
            <mxPoint x="3" y="-13" as="offset" />
          </mxGeometry>
        </mxCell>
        <mxCell id="yGvaIuRayk3CMt5AqlUQ-39" value="&lt;span style=&quot;font-size: 40px;&quot;&gt;&lt;b&gt;狀態機&lt;/b&gt;&lt;/span&gt;" style="text;html=1;align=center;verticalAlign=middle;resizable=0;points=[];autosize=1;strokeColor=none;fillColor=none;" vertex="1" parent="1">
          <mxGeometry x="344" y="1640" width="140" height="60" as="geometry" />
        </mxCell>
        <mxCell id="yGvaIuRayk3CMt5AqlUQ-40" value="點擊修改PO文" style="edgeLabel;html=1;align=center;verticalAlign=middle;resizable=0;points=[];" connectable="0" vertex="1" parent="1">
          <mxGeometry x="270.0032818977665" y="1540.0040746455804" as="geometry">
            <mxPoint x="6" y="6" as="offset" />
          </mxGeometry>
        </mxCell>
        <mxCell id="yGvaIuRayk3CMt5AqlUQ-41" value="修改PO頁面" style="html=1;whiteSpace=wrap;" vertex="1" parent="1">
          <mxGeometry x="360" y="1530" width="110" height="50" as="geometry" />
        </mxCell>
        <mxCell id="yGvaIuRayk3CMt5AqlUQ-42" style="edgeStyle=orthogonalEdgeStyle;rounded=0;orthogonalLoop=1;jettySize=auto;html=1;exitX=1;exitY=0.5;exitDx=0;exitDy=0;" edge="1" parent="1">
          <mxGeometry relative="1" as="geometry">
            <mxPoint x="560" y="1555.3333333333335" as="targetPoint" />
            <mxPoint x="470" y="1555" as="sourcePoint" />
          </mxGeometry>
        </mxCell>
        <mxCell id="yGvaIuRayk3CMt5AqlUQ-43" value="待管理員審核" style="edgeLabel;html=1;align=center;verticalAlign=middle;resizable=0;points=[];" connectable="0" vertex="1" parent="yGvaIuRayk3CMt5AqlUQ-42">
          <mxGeometry x="0.0336" relative="1" as="geometry">
            <mxPoint y="-16" as="offset" />
          </mxGeometry>
        </mxCell>
        <mxCell id="yGvaIuRayk3CMt5AqlUQ-44" value="修改PO文成功" style="html=1;whiteSpace=wrap;" vertex="1" parent="1">
          <mxGeometry x="560" y="1530" width="110" height="50" as="geometry" />
        </mxCell>
        <mxCell id="yGvaIuRayk3CMt5AqlUQ-45" value="" style="ellipse;html=1;shape=startState;fillColor=#000000;strokeColor=#ff0000;" vertex="1" parent="1">
          <mxGeometry x="750" y="1540" width="30" height="30" as="geometry" />
        </mxCell>
        <mxCell id="yGvaIuRayk3CMt5AqlUQ-46" value="" style="edgeStyle=orthogonalEdgeStyle;html=1;verticalAlign=bottom;endArrow=open;endSize=8;strokeColor=#33001A;rounded=0;exitX=1;exitY=0.5;exitDx=0;exitDy=0;entryX=0;entryY=0.5;entryDx=0;entryDy=0;" edge="1" parent="1" target="yGvaIuRayk3CMt5AqlUQ-45">
          <mxGeometry relative="1" as="geometry">
            <mxPoint x="765" y="1569" as="targetPoint" />
            <mxPoint x="670" y="1555" as="sourcePoint" />
          </mxGeometry>
        </mxCell>
        <mxCell id="yGvaIuRayk3CMt5AqlUQ-47" value="完成" style="edgeLabel;html=1;align=center;verticalAlign=middle;resizable=0;points=[];" connectable="0" vertex="1" parent="yGvaIuRayk3CMt5AqlUQ-46">
          <mxGeometry x="-0.0556" y="2" relative="1" as="geometry">
            <mxPoint x="3" y="-13" as="offset" />
          </mxGeometry>
        </mxCell>
      </root>
    </mxGraphModel>
  </diagram>
</mxfile>
